<?xml version="1.0" encoding="UTF-8" standalone="no"?>
<!-- Created with Inkscape (http://www.inkscape.org/) -->

<svg
   xmlns:dc="http://purl.org/dc/elements/1.1/"
   xmlns:cc="http://creativecommons.org/ns#"
   xmlns:rdf="http://www.w3.org/1999/02/22-rdf-syntax-ns#"
   xmlns:svg="http://www.w3.org/2000/svg"
   xmlns="http://www.w3.org/2000/svg"
   xmlns:xlink="http://www.w3.org/1999/xlink"
   xmlns:sodipodi="http://sodipodi.sourceforge.net/DTD/sodipodi-0.dtd"
   xmlns:inkscape="http://www.inkscape.org/namespaces/inkscape"
   width="32"
   height="32"
   id="svg2"
   version="1.1"
   inkscape:version="0.48.4 r9939"
   sodipodi:docname="car-icon.svg"
   inkscape:export-filename="C:\Users\Diego\Git\digital-parking-mobile\mobile\www\img\car-icon.png"
   inkscape:export-xdpi="90"
   inkscape:export-ydpi="90">
  <defs
     id="defs4">
    <linearGradient
       id="linearGradient3841">
      <stop
         style="stop-color:#448aff;stop-opacity:1;"
         offset="0"
         id="stop3843" />
      <stop
         style="stop-color:#2962ff;stop-opacity:1;"
         offset="1"
         id="stop3845" />
    </linearGradient>
    <filter
       inkscape:collect="always"
       id="filter3829"
       x="-0.15361169"
       width="1.3072234"
       y="-0.21733508"
       height="1.4346702">
      <feGaussianBlur
         inkscape:collect="always"
         stdDeviation="1.4121075"
         id="feGaussianBlur3831" />
    </filter>
    <radialGradient
       inkscape:collect="always"
       xlink:href="#linearGradient3841"
       id="radialGradient3847"
       cx="8.8405437"
       cy="1039.2638"
       fx="8.8405437"
       fy="1039.2638"
       r="15"
       gradientTransform="matrix(1.424757,0.25747144,-0.14731409,0.81518476,149.34312,189.43403)"
       gradientUnits="userSpaceOnUse" />
  </defs>
  <sodipodi:namedview
     id="base"
     pagecolor="#ffffff"
     bordercolor="#666666"
     borderopacity="1.0"
     inkscape:pageopacity="0.0"
     inkscape:pageshadow="2"
     inkscape:zoom="0.5"
     inkscape:cx="16"
     inkscape:cy="16"
     inkscape:document-units="px"
     inkscape:current-layer="layer1"
     showgrid="false"
     inkscape:window-width="1366"
     inkscape:window-height="705"
     inkscape:window-x="-8"
     inkscape:window-y="-8"
     inkscape:window-maximized="1" />
  <metadata
     id="metadata7">
    <rdf:RDF>
      <cc:Work
         rdf:about="">
        <dc:format>image/svg+xml</dc:format>
        <dc:type
           rdf:resource="http://purl.org/dc/dcmitype/StillImage" />
        <dc:title></dc:title>
      </cc:Work>
    </rdf:RDF>
  </metadata>
  <g
     inkscape:label="Layer 1"
     inkscape:groupmode="layer"
     id="layer1"
     transform="translate(0,-1020.3622)">
    <path
       style="fill:url(#radialGradient3847);fill-opacity:1;fill-rule:nonzero;stroke:#004fd2;stroke-width:1.03246032999999990;stroke-miterlimit:4;stroke-opacity:1;stroke-dasharray:none"
       d="m 10.707066,1026.3068 c -1.1233813,0 -1.7566701,0.9264 -2.0515273,2.0105 l -1.892708,4.8827 -2.4154952,0 c -1.5727328,0 -2.8311053,1.2993 -2.8311053,2.8721 l 0,4.8959 c 0,1.5725 1.2583725,2.8312 2.8311053,2.8312 l 1.4360681,0 0,1.7643 c 0,1.8223 1.1318183,3.2825 2.5438915,3.2825 1.4120746,0 2.5235939,-1.462 2.5849219,-3.2825 l 0.04102,-1.7643 10.093505,0 0,1.7643 c 0,1.8223 1.131818,3.2825 2.543891,3.2825 1.412076,0 2.482564,-1.462 2.543893,-3.2825 l 0.08207,-1.7643 1.436069,0 c 1.572733,0 2.831105,-1.2586 2.831105,-2.8312 l 0,-4.8959 c 0,-1.5728 -1.258372,-2.8721 -2.831105,-2.8721 l -2.3016,0 -1.965576,-4.8827 c -0.333481,-1.0729 -0.887114,-2.0105 -2.010495,-2.0105 z"
       id="path3837"
       inkscape:connector-curvature="0"
       sodipodi:nodetypes="sccsssscsscccssccssssccss" />
    <path
       sodipodi:type="arc"
       style="opacity:1;fill:#004fd2;fill-opacity:1;fill-rule:nonzero;stroke:#004fd2;stroke-width:2;stroke-linecap:round;stroke-linejoin:round;stroke-miterlimit:4;stroke-opacity:1;stroke-dasharray:none;stroke-dashoffset:0"
       id="path3839"
       sodipodi:cx="15.335379"
       sodipodi:cy="30.983534"
       sodipodi:rx="1.5467961"
       sodipodi:ry="1.5467961"
       d="m 16.882175,30.983534 a 1.5467961,1.5467961 0 1 1 -3.093592,0 1.5467961,1.5467961 0 1 1 3.093592,0 z"
       transform="translate(0.66462135,1018.8596)" />
  </g>
</svg>
