<?xml version="1.0" encoding="UTF-8" standalone="no"?>
<!-- Created with Inkscape (http://www.inkscape.org/) -->

<svg
   xmlns:dc="http://purl.org/dc/elements/1.1/"
   xmlns:cc="http://creativecommons.org/ns#"
   xmlns:rdf="http://www.w3.org/1999/02/22-rdf-syntax-ns#"
   xmlns:svg="http://www.w3.org/2000/svg"
   xmlns="http://www.w3.org/2000/svg"
   xmlns:sodipodi="http://sodipodi.sourceforge.net/DTD/sodipodi-0.dtd"
   xmlns:inkscape="http://www.inkscape.org/namespaces/inkscape"
   width="160"
   height="160"
   id="svg2"
   version="1.1"
   inkscape:version="0.48.4 r9939"
   sodipodi:docname="fire-btn.svg">
  <defs
     id="defs4" />
  <sodipodi:namedview
     id="base"
     pagecolor="#ffffff"
     bordercolor="#666666"
     borderopacity="1.0"
     inkscape:pageopacity="0.0"
     inkscape:pageshadow="2"
     inkscape:zoom="4.5568194"
     inkscape:cx="70.803009"
     inkscape:cy="95.079979"
     inkscape:document-units="px"
     inkscape:current-layer="layer1"
     showgrid="false"
     fit-margin-top="0"
     fit-margin-left="0"
     fit-margin-right="0"
     fit-margin-bottom="0"
     inkscape:window-width="1366"
     inkscape:window-height="705"
     inkscape:window-x="-8"
     inkscape:window-y="-8"
     inkscape:window-maximized="1" />
  <metadata
     id="metadata7">
    <rdf:RDF>
      <cc:Work
         rdf:about="">
        <dc:format>image/svg+xml</dc:format>
        <dc:type
           rdf:resource="http://purl.org/dc/dcmitype/StillImage" />
        <dc:title />
      </cc:Work>
    </rdf:RDF>
  </metadata>
  <g
     inkscape:label="Layer 1"
     inkscape:groupmode="layer"
     id="layer1"
     transform="translate(-1.5660323,-12.316218)">
    <path
       inkscape:connector-curvature="0"
       id="rect3009-4"
       style="fill:#ffffff;fill-opacity:1;fill-rule:nonzero;stroke:none"
       d="m 119.70983,100.95336 c -3.9071,-2.317775 -8.60884,-0.86089 -12.31726,3.77463 -5.76131,12.71461 -14.502594,24.63455 -25.627881,32.58118 4.619269,0.17175 30.594521,-5.84522 37.945141,-36.35581 z m -1.86801,9.47625 c 4.04291,1.90469 9.21863,3.89881 9.21863,12.91582 l 0,13.96374 -39.858427,0 c 18.672827,-2.29911 30.622647,-22.19535 30.639797,-26.87956 z m -74.419581,-9.47274 c 3.9071,-2.317754 8.60885,-0.86087 12.317266,3.77466 5.761302,12.71463 14.502591,24.63454 25.627866,32.58116 -4.619269,0.17177 -30.594507,-5.84522 -37.945132,-36.35582 z m 1.868002,9.47624 c -4.042941,1.90471 -9.218628,3.89883 -9.218628,12.91582 l 0,13.96376 39.858437,0 C 57.257219,135.01359 45.307391,115.11735 45.290241,110.43311 z M 58.935955,98.412332 c 0.09706,0.0212 -11.782081,-8.651654 -1.832263,-18.123871 l 0,3.070866 c -1.748514,1.445214 -2.433957,4.237061 -1.710591,7.304892 0.791601,3.354451 2.911635,5.698942 5.589736,6.325242 0.280564,3.389339 1.621125,6.402579 3.503072,9.000329 l -5.586714,0.88562 c 4.782987,8.34367 14.268574,23.31008 22.666835,28.31598 8.389182,-5.00135 17.861115,-19.95563 22.64865,-28.28566 l -5.579135,-0.90382 c 1.886495,-2.59926 3.230105,-5.61705 3.510645,-9.010932 2.67811,-0.626313 4.79966,-2.970791 5.59126,-6.326759 0.72488,-3.067831 0.0379,-5.859678 -1.71059,-7.304892 l 0,-3.070866 c 10.15478,8.852772 -1.32702,18.162266 -1.22997,18.139516 13.66975,-0.278091 19.14882,-25.599779 -2.14127,-31.293476 -0.35786,-14.68155 -11.44302,-19.863632 -21.08959,-19.81799 -9.550838,0.04526 -19.938579,6.725764 -20.693773,19.81799 -22.764358,5.500493 -16.286728,31.54963 -1.936302,31.277831 z m 0.363593,-12.885941 0.838617,-0.41855 0,-4.463008 c 1.969908,0.216856 4.067207,0.418549 6.263063,0.594459 l 0,2.996562 c 0,2.934397 1.615055,4.549439 4.549439,4.549439 l 3.032969,0 c 2.934384,0 4.549439,-1.615042 4.549439,-4.549439 l 0,-2.402103 c 1.002386,0.01662 2.012372,0.02891 3.032955,0.02891 1.020595,0 2.030582,-0.01178 3.032968,-0.02891 l 0,2.402103 c 0,2.934397 1.615055,4.549439 4.549439,4.549439 l 3.032968,0 c 2.93438,0 4.54944,-1.615042 4.54944,-4.549439 l 0,-2.99808 c 2.19738,-0.175909 4.294665,-0.377603 6.263065,-0.594459 l 0,4.463009 0.83861,0.418549 c 1.02059,0.509533 1.43004,2.420299 0.95386,4.441763 -0.45342,1.918355 -1.79855,4.158192 -4.10057,4.158192 l -1.516465,0 0,1.516484 c 0,10.588068 -12.526134,17.604838 -17.603315,17.604838 -5.077169,0 -17.604815,-7.01677 -17.604815,-17.604838 l 0,-1.516484 -1.516484,0 c -2.302015,0 -3.647128,-2.239837 -4.099049,-4.156674 -0.477692,-2.021464 -0.06671,-3.930714 0.953866,-4.441763 z" />
  </g>
</svg>
