<?xml version="1.0" encoding="UTF-8" standalone="no"?>
<!-- Created with Inkscape (http://www.inkscape.org/) -->

<svg
   xmlns:dc="http://purl.org/dc/elements/1.1/"
   xmlns:cc="http://creativecommons.org/ns#"
   xmlns:rdf="http://www.w3.org/1999/02/22-rdf-syntax-ns#"
   xmlns:svg="http://www.w3.org/2000/svg"
   xmlns="http://www.w3.org/2000/svg"
   xmlns:sodipodi="http://sodipodi.sourceforge.net/DTD/sodipodi-0.dtd"
   xmlns:inkscape="http://www.inkscape.org/namespaces/inkscape"
   width="160"
   height="160"
   id="svg2"
   version="1.1"
   inkscape:version="0.48.4 r9939"
   sodipodi:docname="genre-btn.svg">
  <defs
     id="defs4" />
  <sodipodi:namedview
     id="base"
     pagecolor="#ffffff"
     bordercolor="#666666"
     borderopacity="1.0"
     inkscape:pageopacity="0.0"
     inkscape:pageshadow="2"
     inkscape:zoom="2.4404723"
     inkscape:cx="70.803009"
     inkscape:cy="95.079979"
     inkscape:document-units="px"
     inkscape:current-layer="layer1"
     showgrid="false"
     fit-margin-top="0"
     fit-margin-left="0"
     fit-margin-right="0"
     fit-margin-bottom="0"
     inkscape:window-width="1366"
     inkscape:window-height="705"
     inkscape:window-x="-8"
     inkscape:window-y="-8"
     inkscape:window-maximized="1" />
  <metadata
     id="metadata7">
    <rdf:RDF>
      <cc:Work
         rdf:about="">
        <dc:format>image/svg+xml</dc:format>
        <dc:type
           rdf:resource="http://purl.org/dc/dcmitype/StillImage" />
        <dc:title></dc:title>
      </cc:Work>
    </rdf:RDF>
  </metadata>
  <g
     inkscape:label="Layer 1"
     inkscape:groupmode="layer"
     id="layer1"
     transform="translate(-1.5660323,-12.316218)">
    <path
       sodipodi:type="arc"
       style="fill:#ffffff;fill-opacity:1;fill-rule:nonzero;stroke:none"
       id="path4331"
       sodipodi:cx="-55.522038"
       sodipodi:cy="31.131502"
       sodipodi:rx="20.282959"
       sodipodi:ry="19.053688"
       d="m -35.239079,31.131502 a 20.282959,19.053688 0 1 1 -40.565917,0 20.282959,19.053688 0 1 1 40.565917,0 z"
       transform="translate(1.5660323,12.316218)" />
    <path
       style="fill:#ffffff"
       inkscape:connector-curvature="0"
       d="m 111.09061,115.3712 3.26713,-4.20848 c 2.01702,-2.59817 1.46751,-6.96194 -1.13065,-8.97895 -2.59817,-2.01701 -6.96194,-1.46751 -8.97895,1.13066 l -4.484737,5.77691 c -0.309451,0.39861 -0.884108,0.47096 -1.28271,0.16152 -0.398603,-0.30945 -0.470963,-0.8841 -0.161521,-1.2827 l 7.848298,-10.109606 c 2.09773,-2.702151 1.77623,-6.21768 -0.74684,-8.176396 -2.65449,-2.060736 -7.928769,-1.519069 -9.899816,1.019884 l -2.826506,3.6409 c -0.309442,0.398607 -0.884099,0.470965 -1.282701,0.161521 -0.398613,-0.309448 -0.470972,-0.8841 -0.161529,-1.282706 l 5.605931,-7.221142 c 2.076437,-2.674712 1.51373,-6.926058 -1.130651,-8.978947 -2.645832,-2.054013 -6.902516,-1.54406 -8.93074,1.06855 l -5.654136,7.283243 c -0.309447,0.398608 -0.884103,0.470966 -1.282706,0.161522 -0.398609,-0.309449 -0.470969,-0.8841 -0.161522,-1.282706 l 2.826508,-3.640901 C 84.48932,78.0802 84.603868,73.019079 81.929157,70.942644 79.33099,68.925633 74.967221,69.475129 72.95021,72.073296 L 63.053509,84.8215 c -0.309447,0.398607 -0.884097,0.470971 -1.282706,0.161522 -0.398609,-0.309449 -0.470969,-0.8841 -0.161522,-1.282707 l 4.851368,-6.249176 -3.610571,-2.802963 c -3.88786,-3.018228 -9.108026,-1.684613 -11.544361,1.453695 l -3.363556,4.332687 C 41.540196,88.6811 34.499837,110.50498 53.595426,125.32929 l 12.998056,10.09067 c 9.27917,7.20361 25.40783,4.54067 33.188853,-5.48227 l 11.257825,-14.5015 0.0141,0.009 c 0.0155,-0.0227 0.0184,-0.0506 0.0363,-0.0736 z"
       id="path3" />
    <path
       sodipodi:nodetypes="cccccsccsccsc"
       id="path4333-1-7-4-0"
       style="fill:none;stroke:#ffffff;stroke-width:3.00000048;stroke-miterlimit:4;stroke-opacity:1;stroke-dasharray:none"
       d="m 132.21352,83.279365 c -5.90642,1.134285 -9.84922,6.614259 -8.8065,12.239854 M 82.045999,47.157191 c 0.741675,5.96845 -3.256021,11.408498 -8.929091,12.150708 M 131.95759,82.96078 c -4.40931,4.090282 -11.15998,4.026185 -15.07805,-0.143146 -3.91807,-4.169351 -3.51984,-10.865091 0.88947,-14.95537 m 0.0239,-0.317907 c -3.84327,4.619759 -10.54579,5.418355 -14.97047,1.783726 -4.4247,-3.634643 -4.896028,-10.326147 -1.05275,-14.945905 m 0.10934,-0.34707 c -2.079465,5.626864 -8.132986,8.592898 -13.520964,6.624821 -5.387989,-1.968082 -8.070109,-8.124999 -5.990697,-13.751866"
       inkscape:connector-curvature="0" />
  </g>
</svg>
