<?xml version="1.0" encoding="UTF-8" standalone="no"?>
<!-- Created with Inkscape (http://www.inkscape.org/) -->

<svg
   xmlns:dc="http://purl.org/dc/elements/1.1/"
   xmlns:cc="http://creativecommons.org/ns#"
   xmlns:rdf="http://www.w3.org/1999/02/22-rdf-syntax-ns#"
   xmlns:svg="http://www.w3.org/2000/svg"
   xmlns="http://www.w3.org/2000/svg"
   xmlns:sodipodi="http://sodipodi.sourceforge.net/DTD/sodipodi-0.dtd"
   xmlns:inkscape="http://www.inkscape.org/namespaces/inkscape"
   width="160"
   height="160"
   id="svg2"
   version="1.1"
   inkscape:version="0.48.4 r9939"
   sodipodi:docname="medic-btn.svg">
  <defs
     id="defs4" />
  <sodipodi:namedview
     id="base"
     pagecolor="#ffffff"
     bordercolor="#666666"
     borderopacity="1.0"
     inkscape:pageopacity="0.0"
     inkscape:pageshadow="2"
     inkscape:zoom="1.3070312"
     inkscape:cx="134.72506"
     inkscape:cy="10.671072"
     inkscape:document-units="px"
     inkscape:current-layer="layer1"
     showgrid="false"
     fit-margin-top="0"
     fit-margin-left="0"
     fit-margin-right="0"
     fit-margin-bottom="0"
     inkscape:window-width="1366"
     inkscape:window-height="705"
     inkscape:window-x="-8"
     inkscape:window-y="-8"
     inkscape:window-maximized="1" />
  <metadata
     id="metadata7">
    <rdf:RDF>
      <cc:Work
         rdf:about="">
        <dc:format>image/svg+xml</dc:format>
        <dc:type
           rdf:resource="http://purl.org/dc/dcmitype/StillImage" />
        <dc:title></dc:title>
      </cc:Work>
    </rdf:RDF>
  </metadata>
  <g
     inkscape:label="Layer 1"
     inkscape:groupmode="layer"
     id="layer1"
     transform="translate(-1.5660347,-12.316214)">
    <path
       style="fill:#ffffff"
       inkscape:connector-curvature="0"
       d="m 101.06603,105.46371 v 6.38849 c 6.9495,0.34801 7.5,3.22051 7.5,7.46401 v 6 c 0,2.6535 -1.7295,4.43549 -4.305,4.43549 -0.828,0 -1.5,-0.67199 -1.5,-1.49999 0,-0.828 0.672,-1.5 1.5,-1.5 0.35699,0 1.30499,0 1.30499,-1.4355 v -6 c 0,-3.4575 0,-4.5 -5.999996,-4.5 -3.07799,0 -4.97399,0.264 -5.63549,0.7845 -0.3345,0.26251 -0.36451,0.79499 -0.36451,2.1375 v 7.578 c 0,0.7245 0.3945,1.5 1.50001,1.5 0.828,0 1.5,0.67201 1.5,1.49999 0,0.828 -0.672,1.50001 -1.5,1.50001 -2.607,0 -4.5,-1.89301 -4.5,-4.5 v -7.5 c 0,-1.704 -0.001,-3.3855 1.509,-4.5735 1.11899,-0.87901 2.90549,-1.3065 5.991,-1.404 v -6.7905 c -1.05751,-0.1455 -2.1165,-0.2955 -3.189,-0.453 3.66,-3.2355 6.622496,-7.606497 7.048486,-12.862497 2.835,-0.79199 4.308,-3.90299 4.308,-6.981 0,-0.97049 -0.16349,-1.93499 -0.453,-2.83799 l 1.89451,-14.03401 c 0.03,-0.2955 0.66299,-7.3005 -4.60651,-13.1235 -4.466996,-4.9365 -11.692486,-7.44 -21.473986,-7.44 -9.78,0 -17.00549,2.5035 -21.47249,7.44 -5.2695,5.8215 -4.63501,12.828 -4.6005,13.16851 l 1.83449,13.97399 c -0.2925,0.9075 -0.45749,1.8765 -0.45749,2.853 0,3.07801 1.473,6.18901 4.308,6.981 0.42449,5.24401 3.37349,9.607497 7.02298,12.840007 -0.55799,0.0825 -1.10699,0.16349 -1.66199,0.23999 v 10.1535 c 3.4185,0.6975 6,3.7275 6,7.34851 0,4.13549 -3.3645,7.49999 -7.5,7.49999 -4.13551,0 -7.49999,-3.3645 -7.49999,-7.49999 0,-3.62101 2.58149,-6.65101 5.99998,-7.34851 v -9.738 c -13.32299,1.8135 -27.00149,3.76801 -27.00149,18.2775 v 13.8105 h 44.99999 v -24 c 0,-0.828 0.67201,-1.5 1.50001,-1.5 0.828,0 1.5,0.672 1.5,1.5 v 24 h 41.999996 v -13.8105 c 0,-14.01 -12.17251,-16.2075 -25.5,-18.042 z m -19.500006,2.37451 c -5.02199,0 -17.41349,-6.94051 -17.41349,-17.411997 0,-0.82801 -0.672,-1.50001 -1.5,-1.50001 -2.1795,0 -2.7555,-2.72999 -2.7555,-4.1745 0,-1.44449 0.576,-4.1745 2.7555,-4.1745 0.714,0 1.329,-0.504 1.47,-1.20449 l 1.662,-8.265 c 11.292,-0.24301 14.2335,-3.84601 15.80099,-6.369 1.56151,2.52299 4.49551,6.12449 15.78151,6.369 l 1.6395,8.26199 c 0.1395,0.702 0.75599,1.2075 1.471496,1.2075 2.1795,0 2.7555,2.73001 2.7555,4.1745 0,1.44451 -0.576,4.1745 -2.7555,4.1745 -0.827996,0 -1.500006,0.672 -1.500006,1.50001 0,10.471487 -12.38999,17.411997 -17.412,17.411997 z"
       id="path7-0" />
  </g>
</svg>
